<svg width="256" height="256" viewBox="0 0 256 256" fill="none" xmlns="http://www.w3.org/2000/svg">
  <defs>
    <linearGradient id="iconBrand" x1="54" y1="30" x2="206" y2="212" gradientUnits="userSpaceOnUse">
      <stop offset="0" stop-color="#0E7490" />
      <stop offset="1" stop-color="#5CC46C" />
    </linearGradient>
  </defs>

  <path d="M135.21 23.72C91.87 23.72 55.4 59.95 50.36 102.77C28.8 113.1 11.33 130.88 2.52 153.67L0 190.28L31.82 173.68C46.93 180.48 63.24 184.45 80.71 184.45C84.4 184.45 88.01 184.23 91.54 183.81C103.69 197.6 120.81 208.61 140.34 214.2L168.09 242L170.84 200.72C214.16 191.72 246.92 153.42 246.92 108.45C246.92 57.41 205.29 15.79 154.25 15.79C147.99 15.79 141.99 16.6 136.46 18.06C136.38 19.92 136.29 21.77 135.21 23.72Z" fill="url(#iconBrand)" />
  <path d="M59.9 58.48C105.72 39.35 157.21 58.57 179.45 102.97" stroke="white" stroke-width="10" stroke-linecap="round" />
  <path d="M36.04 165.9C46.89 116.67 95.74 82.76 146.01 88.53" stroke="white" stroke-width="10" stroke-linecap="round" />
  <path d="M153.99 42.41C200.94 37.63 242.16 72.07 247.07 119.03C251.98 165.98 217.48 207.19 170.52 212.1" stroke="white" stroke-width="10" stroke-linecap="round" />
  <rect x="101.42" y="53.86" width="52.16" height="98.38" rx="18" fill="white" />
  <rect x="78.31" y="76.97" width="98.38" height="52.16" rx="18" fill="white" />
  <path d="M79.54 141.08C96.4 132.3 111.58 128.23 125.1 129.87C115.02 140.54 102.4 147.9 87.22 151.97C74.68 155.37 62.22 154.52 49.84 149.42C58.02 146.87 67.92 143.42 79.54 141.08Z" fill="white" />
  <path d="M176.46 141.08C159.6 132.3 144.42 128.23 130.9 129.87C140.98 140.54 153.6 147.9 168.78 151.97C181.32 155.37 193.78 154.52 206.16 149.42C197.98 146.87 188.08 143.42 176.46 141.08Z" fill="white" />
  <rect x="119.11" y="136.26" width="15.78" height="79.62" rx="7.89" fill="white" />
  <circle cx="127" cy="132.05" r="16.15" fill="white" />
  <path d="M113.53 160.98C99.7 168.72 95.33 181.56 105.42 190.67C112.1 196.04 121.25 196.17 128.79 201.69C136.8 207.62 135.86 218.79 127.95 223.21C118.49 228.91 106.38 225.18 99.42 216.04" stroke="white" stroke-width="9.52" stroke-linecap="round" />
  <path d="M140.97 184.91C154.8 192.65 159.17 205.49 149.08 214.6C142.4 219.97 133.25 220.1 125.71 225.62C117.7 231.55 118.64 242.72 126.55 247.14C136.01 252.84 148.12 249.11 155.08 239.97" stroke="white" stroke-width="9.52" stroke-linecap="round" />
</svg>
